PathFileType   4   (X/Y/Z)																																																																																																																	
DataRate	CameraRate	NumFrames	NumMarkers	Units	OrigDataRate	OrigDataStartFrame	OrigNumFrames																																																																																																										
120	120	4	37	mm	120	27	106																																																																																																										
Frame#	Time	midhip	hip_r	hip_l	knee_r	knee_l	ankle_r	ankle_l	midasis	asis_r	asis_l	psis_r	psis_l	epicondLat_r	epicondLat_l	epicondMed_r	epicondMed_l	malleolusLat_r	malleolusLat_l	malleolusMedv_r	malleolusMedv_l	neck	subclavicle_r	subclavicle_l	sternalnotch	xyphoidprocess	thighwand_r	thighwand_l	upperleg1_r	upperleg1_l	upperleg2_r	upperleg2_l	shankwand_r	shankwand_l	lowerleg1_r	lowerleg1_l	toe_r	toe_l																																																																											
 	 	X1	Y1	Z1	X2	Y2	Z2	X3	Y3	Z3	X4	Y4	Z4	X5	Y5	Z5	X6	Y6	Z6	X7	Y7	Z7	X8	Y8	Z8	X9	Y9	Z9	X10	Y10	Z10	X11	Y11	Z11	X12	Y12	Z12	X13	Y13	Z13	X14	Y14	Z14	X15	Y15	Z15	X16	Y16	Z16	X17	Y17	Z17	X18	Y18	Z18	X19	Y19	Z19	X20	Y20	Z20	X21	Y21	Z21	X22	Y22	Z22	X23	Y23	Z23	X24	Y24	Z24	X25	Y25	Z25	X26	Y26	Z26	X27	Y27	Z27	X28	Y28	Z28	X29	Y29	Z29	X30	Y30	Z30	X31	Y31	Z31	X32	Y32	Z32	X33	Y33	Z33	X34	Y34	Z34	X35	Y35	Z35	X36	Y36	Z36	X37	Y37	Z37	

	27	0.33333	807.7	887.508	-268.551	802.773	877.951	-215.243	809.839	879.06	-321.573	981.905	494.086	-200.706	780.031	469.679	-323.932	835.688	106.04	-198.713	647.412	71.003	-313.123	886.714	973.741	-262.071	879.895	972.671	-159.47	893.532	974.811	-364.672	687.36	1001.018	-229.692	690.358	1006.88	-314.922	981.513	496.155	-141.243	789.811	469.306	-382.622	988.075	504.302	-262.564	757.985	475.217	-279.608	828.312	109.01	-161.554	647.458	69.918	-352.608	839.322	110.549	-230.907	655.454	78.192	-283.337	768.356	1459.21	-279.404	858.036	1388.704	-189.809	866.62	1382.808	-347.032	850.29	1387.314	-273.107	881.471	1184.739	-270.567	960.966	590.333	-56.178	937.454	581.261	-322.846	968.709	659.684	-121.839	877.458	647.271	-368.939	1000.504	585.79	-146.546	853.677	562.032	-365.683	861.175	179.305	-93.624	779.593	148.19	-302.995	870.463	236.303	-156.019	730.44	213.327	-321.268	944.039	58.794	-189.027	773.107	41.067	-319.488
	28	0.34167	820.169	886.293	-268.379	816.097	876.989	-214.019	821.845	877.471	-320.433	1000.042	495.33	-200.734	784.351	468.892	-324.156	873.819	100.245	-197.401	647.787	71.62	-313.1	899.475	972.476	-262.446	893.925	972.01	-159.715	905.024	972.942	-365.176	700.234	999.87	-228.44	702.357	1005.588	-313.798	1000.595	497.666	-141.282	794.071	468.535	-382.855	1004.451	505.237	-262.809	765.354	472.771	-278.283	866.306	102.959	-160.25	647.779	70.524	-352.585	876.996	104.988	-229.652	655.858	78.793	-283.348	781.524	1458.088	-279.135	871.241	1387.281	-189.78	879.625	1381.706	-347.075	863.391	1386.076	-273.095	894.336	1183.459	-271.024	980.228	592.118	-56.4	943.484	578.383	-322.829	985.447	661.143	-122.791	882.139	645.696	-369.075	1017.869	587.857	-147.589	859.395	560.561	-365.417	895.541	175.063	-92.544	780.694	147.538	-303.144	901.809	232.274	-155.058	732.161	213.069	-321.385	984.462	58.777	-188.028	773.175	41.073	-319.564
	29	0.35	832.781	884.969	-268.125	829.573	875.868	-212.922	833.983	875.778	-319.401	1017.704	496.152	-200.594	788.679	468.176	-324.349	912.115	95.003	-195.98	648.221	72.357	-313.032	912.341	971.083	-262.905	908.08	971.169	-160.035	916.602	970.996	-365.775	713.225	998.546	-227.044	714.447	1004.159	-312.477	1019.153	498.799	-141.171	798.402	467.808	-383.048	1020.422	505.685	-262.802	771.843	470.603	-277.723	904.486	97.438	-158.833	648.126	71.261	-352.517	914.784	99.857	-228.223	656.382	79.457	-283.289	794.845	1456.848	-278.852	884.609	1385.649	-189.761	892.641	1380.468	-347.029	876.576	1384.676	-273.033	907.143	1181.996	-271.552	998.995	593.661	-56.6	949.573	575.601	-322.662	1001.647	662.407	-123.655	887.679	643.929	-368.548	1034.794	589.454	-148.539	865.233	559.099	-365.088	929.965	171.15	-91.36	781.826	146.976	-303.341	933.119	228.406	-153.959	733.908	212.922	-321.456	1024.69	59.175	-187.107	773.257	41.087	-319.66
	30	0.35833	845.622	883.636	-267.779	843.175	874.593	-212.009	846.262	874.017	-318.533	1034.979	496.561	-200.298	793.037	467.565	-324.531	950.459	90.382	-194.497	648.713	73.234	-312.916	925.31	969.58	-263.45	922.324	970.136	-160.431	928.296	969.023	-366.469	726.352	997.074	-225.495	726.653	1002.629	-310.951	1037.206	499.531	-140.914	802.796	467.154	-383.223	1036.274	505.776	-262.775	778.377	467.364	-277.333	942.755	92.516	-157.347	648.499	72.149	-352.4	952.564	95.24	-226.692	657.034	80.22	-283.184	808.154	1455.486	-278.583	898.166	1383.844	-189.782	905.701	1379.059	-346.963	889.873	1383.1	-272.969	920.122	1180.369	-272.103	1017.157	594.897	-56.747	955.744	572.918	-322.443	1017.615	663.271	-124.414	892.54	641.889	-367.251	1051.437	590.536	-149.396	870.618	557.571	-364.592	964.423	167.605	-90.099	783.002	146.523	-303.583	964.397	224.715	-152.73	735.675	212.91	-321.501	1064.614	59.971	-186.328	773.352	41.119	-319.779
